<!DOCTYPE svg PUBLIC "-//W3C//DTD SVG 20010904//EN" "http://www.w3.org/TR/2001/REC-SVG-20010904/DTD/svg10.dtd">
<svg version="1.0" xmlns="http://www.w3.org/2000/svg" width="1600px" height="637px" viewBox="0 0 16000 6370" preserveAspectRatio="xMidYMid meet">
<g id="layer101" fill="#e57a14" stroke="none">
 <path d="M320 6200 l0 -60 7780 0 7780 0 0 60 0 60 -7780 0 -7780 0 0 -60z"/>
 <path d="M2748 5805 c-3 -3 -27 -10 -54 -15 -152 -28 -231 -54 -373 -122 -93 -45 -229 -126 -257 -152 -6 -6 -24 -20 -40 -31 -16 -11 -79 -69 -140 -130 -146 -145 -228 -260 -317 -448 -38 -79 -57 -133 -107 -302 -48 -162 -46 -558 4 -749 34 -127 110 -319 141 -356 7 -8 21 -31 31 -50 69 -129 221 -310 359 -426 60 -51 248 -184 260 -184 3 0 43 -18 88 -39 95 -45 175 -74 192 -68 6 3 19 -1 30 -9 10 -8 29 -14 41 -14 12 0 39 -6 60 -13 58 -21 113 -30 94 -16 -12 9 -11 9 5 4 75 -28 398 -31 505 -6 201 47 221 53 360 114 25 11 64 28 88 38 52 23 182 98 200 116 8 7 23 18 34 24 49 26 219 192 290 282 26 34 52 67 57 73 4 5 14 21 21 35 7 13 16 26 20 29 7 5 16 22 73 135 89 179 137 334 156 507 43 386 -34 750 -219 1032 -25 38 -50 79 -57 90 -7 12 -23 23 -35 26 -17 4 -23 13 -23 33 -1 14 -12 39 -25 54 -61 66 -169 171 -205 198 -22 17 -42 32 -45 36 -18 20 -147 102 -210 132 -147 72 -225 106 -255 110 -16 2 -51 12 -77 21 -113 38 -188 46 -429 46 -130 0 -238 -2 -241 -5z m296 -78 c11 -7 27 -21 36 -31 26 -30 -2 -78 -65 -111 -65 -34 -195 -162 -195 -191 0 -12 3 -24 8 -26 4 -1 24 -29 45 -62 28 -42 36 -61 28 -69 -6 -6 -11 -18 -11 -27 0 -10 -19 -22 -56 -35 -36 -12 -72 -34 -100 -61 -23 -23 -60 -55 -81 -70 -21 -16 -43 -34 -50 -40 -7 -7 -34 -22 -60 -35 -26 -12 -50 -25 -53 -28 -3 -4 -23 -15 -44 -26 -22 -11 -47 -25 -55 -32 -9 -7 -35 -26 -58 -42 -31 -22 -50 -49 -76 -104 -19 -40 -48 -89 -64 -108 -42 -49 -71 -118 -78 -185 -3 -33 -9 -93 -14 -134 -4 -41 -4 -77 -1 -80 4 -3 11 -21 15 -40 7 -33 33 -121 76 -256 10 -34 19 -75 19 -92 0 -45 28 -161 51 -211 18 -39 19 -48 8 -92 -13 -48 -15 -50 -88 -87 -115 -56 -149 -103 -98 -137 21 -13 29 -13 71 -1 47 14 76 12 76 -5 0 -5 13 -21 28 -36 43 -43 76 -94 65 -102 -5 -3 -13 -21 -16 -39 -7 -37 -61 -120 -83 -129 -27 -10 -147 71 -248 166 -85 82 -216 252 -258 336 -8 17 -24 46 -34 65 -11 19 -33 67 -48 105 -16 39 -32 79 -37 90 -9 21 -23 75 -42 165 -8 34 -12 151 -12 310 0 244 2 259 27 350 23 83 36 123 68 205 17 46 96 200 103 203 4 2 7 8 7 14 0 35 250 313 345 383 22 17 42 32 45 35 16 17 80 60 88 60 6 0 12 3 14 8 6 13 73 49 203 108 49 22 185 64 325 101 36 9 79 23 95 30 34 15 145 9 179 -10z m929 -333 c3 -4 -1 -20 -9 -36 -13 -25 -18 -28 -32 -17 -9 8 -18 14 -20 15 -2 1 5 11 15 22 19 21 35 27 46 16z m101 -123 c3 -4 19 -11 36 -14 21 -5 31 -14 36 -33 4 -17 17 -30 35 -36 19 -7 31 -19 35 -36 11 -50 27 -87 61 -134 37 -53 53 -87 111 -233 28 -71 38 -109 35 -132 -6 -35 0 -32 -110 -49 -18 -3 -33 -9 -33 -14 0 -5 -8 -11 -18 -14 -20 -7 -37 -43 -51 -111 -17 -85 -27 -120 -55 -180 -14 -32 -26 -62 -26 -68 0 -5 12 -35 27 -65 19 -39 23 -57 15 -60 -7 -2 -12 -12 -12 -23 0 -36 -42 -104 -97 -157 -53 -52 -55 -55 -50 -95 6 -42 -9 -106 -28 -119 -5 -4 -33 -8 -61 -8 -63 0 -111 -19 -144 -57 -58 -68 -64 -103 -23 -140 21 -20 33 -24 60 -20 26 5 33 2 33 -11 0 -12 -25 -27 -83 -50 -91 -35 -114 -52 -224 -157 -71 -68 -74 -72 -84 -134 -5 -36 -12 -68 -15 -73 -3 -4 -35 -8 -71 -8 -80 0 -125 -14 -176 -53 -41 -31 -40 -31 -107 9 -14 8 -38 13 -55 11 -36 -5 -58 18 -44 46 6 9 11 52 12 94 1 58 6 82 19 95 19 19 22 19 121 -21 34 -14 52 -14 98 -1 46 13 202 148 219 190 13 31 12 43 -13 177 -8 39 -12 85 -9 102 10 72 -24 102 -102 87 -31 -6 -126 -86 -126 -107 0 -5 -8 -18 -18 -29 -16 -18 -17 -15 -11 63 4 68 10 89 33 124 16 23 36 45 46 48 19 6 121 110 164 167 26 35 27 39 15 73 -11 28 -26 43 -69 66 -30 16 -68 40 -84 54 -16 14 -53 37 -83 51 -58 29 -133 95 -133 119 0 8 -4 15 -10 15 -5 0 -10 8 -10 18 0 20 -28 58 -87 119 -24 24 -43 50 -43 57 0 7 25 38 55 70 30 31 55 61 55 66 0 6 8 10 18 10 10 0 36 17 58 38 54 52 91 75 108 69 20 -8 36 15 30 40 -11 42 -91 63 -236 63 l-108 0 -14 -34 c-18 -44 -57 -70 -91 -62 -34 9 -31 28 10 72 21 22 35 47 35 63 1 14 9 36 19 48 15 18 27 21 82 19 35 -1 73 -7 85 -14 35 -19 118 -25 178 -12 52 10 60 10 97 -9 61 -32 89 -28 136 22 41 43 44 44 119 50 58 5 90 14 132 37 65 35 89 37 142 10 33 -17 48 -19 99 -12 41 6 62 5 65 -2 2 -7 11 -4 22 6 14 14 16 21 6 30 -18 18 -15 43 11 72 24 27 33 31 41 17z m-1434 -441 c30 -11 69 -19 87 -20 18 0 45 -6 60 -12 33 -15 60 -38 44 -38 -6 0 -11 -8 -11 -18 0 -29 -28 -78 -53 -94 -25 -17 -173 -32 -212 -22 -50 12 -81 104 -54 157 18 35 51 67 68 67 9 -1 41 -9 71 -20z m296 -925 c11 -17 10 -27 -7 -66 -28 -64 -87 -89 -123 -53 -24 24 -19 48 19 90 19 22 35 43 35 47 0 17 63 2 76 -18z m195 -358 c-6 -6 -11 -19 -11 -28 0 -15 -55 -47 -65 -37 -7 7 69 86 78 81 5 -3 4 -10 -2 -16z m-449 -185 c35 -16 77 -32 93 -36 42 -9 85 -27 85 -35 0 -3 -9 -21 -21 -40 -21 -35 -21 -48 -1 -136 16 -72 47 -114 86 -115 12 0 16 -5 12 -16 -3 -9 -6 -19 -6 -24 0 -28 -59 -17 -96 18 -36 34 -61 42 -131 42 -59 0 -72 3 -96 25 -15 14 -27 29 -27 33 0 4 -18 27 -39 51 l-40 44 30 43 c16 23 29 52 29 64 0 12 8 34 18 48 10 15 22 35 25 45 8 22 5 22 79 -11z"/>
 <path d="M6845 5615 c-5 -2 -44 -11 -85 -20 -238 -54 -420 -249 -420 -450 0 -99 -6 -95 131 -95 l119 0 0 27 c0 15 7 53 17 86 37 133 173 207 377 207 140 0 218 -26 290 -93 57 -55 79 -131 58 -205 -11 -36 -81 -111 -126 -134 -44 -23 -158 -65 -216 -79 -19 -4 -62 -14 -95 -22 -68 -16 -145 -41 -192 -63 -17 -8 -35 -14 -40 -14 -16 0 -136 -79 -170 -112 -131 -126 -150 -362 -43 -528 69 -107 205 -194 350 -224 98 -21 267 -20 361 0 248 54 427 249 429 467 0 72 -7 77 -124 77 -113 0 -136 -10 -136 -62 0 -39 -27 -94 -67 -139 -113 -125 -319 -155 -491 -72 -92 45 -144 141 -122 224 29 105 85 139 365 219 17 4 46 11 65 15 100 19 274 95 357 156 196 145 227 433 70 633 -70 88 -210 165 -352 192 -61 12 -281 18 -310 9z"/>
 <path d="M10435 5615 c-5 -2 -43 -11 -83 -20 -112 -26 -206 -77 -288 -159 -40 -41 -80 -92 -93 -120 -28 -62 -45 -164 -36 -222 l6 -44 118 0 118 0 6 52 c21 171 162 268 390 268 145 0 224 -27 296 -99 48 -48 65 -98 58 -163 -13 -103 -92 -170 -262 -222 -125 -38 -145 -43 -185 -51 -41 -8 -141 -40 -187 -61 -17 -8 -35 -14 -40 -14 -16 0 -136 -79 -170 -112 -131 -127 -149 -360 -41 -531 66 -103 205 -192 348 -221 98 -21 267 -20 361 0 158 34 315 144 377 262 42 82 64 221 42 263 -10 17 -22 19 -114 19 -113 0 -136 -10 -136 -62 0 -66 -78 -171 -155 -210 -85 -44 -209 -59 -303 -37 -69 16 -151 60 -175 94 -12 17 -24 32 -27 35 -3 3 -12 24 -18 47 -10 33 -10 53 -2 84 29 105 85 139 365 219 17 4 46 11 65 15 39 7 53 12 160 51 41 15 86 35 100 44 14 9 38 22 54 30 93 47 180 170 205 288 27 128 -2 256 -80 360 -77 101 -212 179 -364 208 -61 12 -281 18 -310 9z"/>
 <path d="M13785 5606 c-124 -39 -198 -113 -239 -238 -32 -97 -36 -178 -36 -691 l0 -517 -111 0 c-142 0 -148 -5 -149 -131 0 -117 3 -119 148 -119 l112 0 0 -183 c0 -179 1 -184 23 -205 20 -19 35 -22 115 -22 135 0 132 -4 132 227 l0 183 153 0 c190 0 187 -2 187 122 0 128 0 128 -189 128 l-152 0 3 543 c4 603 2 589 71 641 30 23 43 26 116 26 45 0 102 -5 127 -11 25 -6 47 -10 49 -7 3 2 13 49 24 104 16 77 17 102 8 111 -41 42 -302 68 -392 39z"/>
 <path d="M8072 5567 l-22 -23 0 -796 c0 -762 1 -796 19 -816 16 -20 28 -22 119 -22 l100 0 7 63 c11 104 12 105 54 62 73 -76 139 -116 230 -139 74 -19 193 -21 256 -4 43 12 45 14 45 48 -1 40 -17 176 -25 200 -4 14 -16 15 -93 7 -196 -21 -324 45 -408 211 l-34 67 0 561 0 561 -23 21 c-20 19 -35 22 -113 22 -82 0 -93 -2 -112 -23z"/>
 <path d="M9232 5567 l-22 -23 0 -796 c0 -762 1 -796 19 -816 16 -20 29 -22 113 -22 86 0 97 2 116 23 l22 23 0 795 0 796 -23 21 c-20 19 -35 22 -113 22 -82 0 -93 -2 -112 -23z"/>
 <path d="M11657 5572 c-16 -17 -17 -113 -17 -1179 0 -1111 1 -1161 18 -1176 28 -26 188 -24 219 2 l23 19 2 416 3 416 35 -33 c112 -105 251 -157 424 -157 257 0 424 110 502 330 51 144 54 182 54 781 0 660 14 599 -134 599 -149 0 -135 65 -138 -630 -2 -474 -6 -591 -17 -615 -8 -16 -20 -45 -28 -63 -31 -72 -102 -126 -198 -151 -81 -22 -173 -9 -280 38 -63 27 -164 132 -199 207 l-26 55 0 561 0 561 -22 18 c-31 28 -197 28 -221 1z"/>
 <path d="M14572 5567 l-22 -23 0 -795 0 -796 23 -21 c20 -19 35 -22 116 -22 83 0 96 2 112 22 18 20 19 54 19 818 l0 797 -23 21 c-20 19 -35 22 -113 22 -82 0 -93 -2 -112 -23z"/>
 <path d="M9227 3522 c-14 -15 -17 -42 -17 -149 0 -122 1 -131 23 -151 20 -19 35 -22 113 -22 82 0 93 2 112 23 20 21 22 34 22 150 0 168 1 167 -136 167 -85 0 -103 -3 -117 -18z"/>
 <path d="M14567 3522 c-14 -15 -17 -42 -17 -149 0 -122 1 -131 23 -151 20 -19 35 -22 113 -22 82 0 93 2 112 23 20 21 22 34 22 154 0 165 2 163 -137 163 -84 0 -103 -3 -116 -18z"/>
 <path d="M8038 3513 c-55 -16 -55 -19 -35 -134 17 -92 26 -99 136 -99 72 0 97 -4 124 -20 36 -21 108 -116 127 -166 6 -16 18 -45 27 -64 18 -42 23 -55 55 -140 l24 -65 -77 -200 c-42 -110 -132 -344 -199 -520 -68 -176 -167 -436 -222 -577 l-99 -258 21 -30 22 -31 115 3 115 3 23 60 c29 75 84 226 120 325 15 41 30 84 35 95 5 11 16 43 25 70 10 28 21 59 25 70 5 11 25 65 45 120 20 55 40 109 45 120 5 11 25 65 45 120 20 55 40 109 45 120 21 52 40 113 41 130 0 17 2 16 11 -5 22 -53 28 -68 64 -175 20 -60 54 -159 76 -220 22 -60 50 -141 63 -180 26 -75 66 -191 140 -400 25 -71 55 -158 67 -193 l21 -62 118 0 118 0 20 29 20 28 -25 69 c-15 38 -41 110 -59 159 -47 128 -97 264 -140 380 -21 55 -52 141 -70 190 -68 184 -108 292 -135 365 -15 41 -40 109 -55 150 -14 41 -30 84 -35 95 -4 11 -20 54 -35 95 -14 41 -30 84 -35 95 -4 11 -20 54 -35 95 -14 41 -30 84 -35 95 -5 11 -12 31 -16 45 -11 41 -75 172 -107 220 -70 105 -145 165 -246 196 -59 18 -211 16 -273 -3z"/>
 <path d="M6906 2909 c-77 -9 -159 -35 -233 -76 -67 -37 -183 -157 -226 -234 -77 -138 -103 -228 -119 -411 -20 -229 4 -440 68 -588 31 -71 39 -86 81 -145 88 -127 169 -189 314 -243 70 -25 84 -27 239 -27 179 0 200 4 329 67 95 46 202 151 244 241 19 40 39 88 45 107 16 54 25 155 17 200 l-7 40 -101 0 c-98 -1 -103 -2 -121 -26 -10 -14 -22 -55 -26 -90 -25 -198 -244 -337 -462 -294 -157 30 -244 111 -317 293 -27 69 -41 177 -41 329 0 211 28 330 105 453 48 77 84 103 208 154 15 6 70 11 122 11 76 0 107 -5 161 -25 136 -51 206 -128 225 -246 15 -92 26 -99 147 -99 l100 0 6 35 c7 37 0 120 -16 175 -44 157 -194 305 -375 369 -103 37 -226 47 -367 30z"/>
 <path d="M10245 2911 c-33 -4 -71 -11 -85 -15 -60 -18 -170 -80 -208 -116 -23 -22 -44 -40 -47 -40 -3 0 -5 24 -5 53 0 99 1 97 -110 97 -81 0 -100 -3 -113 -18 -16 -17 -17 -113 -17 -1179 0 -1111 1 -1161 18 -1176 14 -13 39 -17 109 -17 143 0 132 -35 135 448 l3 402 25 -22 c60 -54 125 -93 220 -129 24 -10 83 -14 185 -14 136 0 156 2 210 24 117 47 209 120 275 216 37 54 96 181 110 235 6 25 16 63 21 85 5 22 17 103 25 180 29 261 -12 511 -114 695 -70 127 -217 245 -347 279 -56 14 -218 21 -290 12z m239 -270 c111 -50 180 -147 227 -316 18 -67 22 -107 22 -250 0 -203 -20 -306 -90 -451 -76 -159 -242 -234 -423 -190 -121 29 -220 111 -277 228 -23 47 -23 54 -23 398 0 402 -3 387 93 484 91 93 168 124 310 125 87 1 104 -2 161 -28z"/>
 <path d="M11941 2910 c-162 -23 -334 -130 -442 -277 -38 -51 -93 -157 -116 -223 -58 -165 -58 -550 -1 -715 5 -16 30 -70 54 -120 85 -176 229 -306 409 -372 40 -15 80 -18 205 -18 168 1 192 6 318 67 123 59 245 210 290 358 6 19 16 51 23 70 6 19 13 111 16 203 6 165 5 168 -17 192 l-23 25 -529 0 -528 0 0 28 c0 44 28 176 49 231 57 150 168 261 297 299 57 17 221 15 290 -3 83 -22 179 -69 222 -109 28 -28 45 -36 74 -36 34 0 39 4 76 63 59 94 59 96 4 149 -82 80 -198 143 -312 171 -81 20 -274 29 -359 17z m493 -1117 c-13 -112 -76 -232 -154 -295 -75 -59 -210 -89 -310 -68 -149 32 -268 152 -325 327 -14 42 -25 79 -25 84 0 5 184 9 411 9 l410 0 -7 -57z"/>
 <path d="M13112 2867 l-22 -23 0 -795 0 -796 23 -21 c21 -20 34 -22 125 -22 l102 0 1 63 c0 34 4 70 8 80 6 16 9 15 32 -10 73 -79 165 -134 258 -154 58 -12 241 -8 274 6 15 6 18 15 13 44 -3 20 -10 74 -16 120 -6 46 -12 87 -14 90 -3 4 -47 2 -99 -3 -197 -19 -314 43 -403 214 l-29 55 -3 565 c-3 671 11 610 -137 610 -83 0 -94 -2 -113 -23z"/>
 <path d="M4480 2774 c-169 -18 -403 -75 -545 -134 -11 -4 -36 -14 -55 -21 -31 -11 -124 -52 -215 -94 -16 -7 -64 -29 -106 -49 -42 -19 -107 -49 -144 -66 -37 -17 -100 -46 -139 -64 -115 -54 -179 -83 -206 -91 -14 -4 -43 -15 -65 -25 -241 -105 -538 -129 -770 -60 -38 11 -86 25 -105 31 -56 17 -88 30 -233 98 -121 58 -286 159 -351 216 -6 6 -29 25 -51 44 -22 18 -72 64 -112 102 -88 84 -128 91 -157 25 -28 -61 -219 -562 -233 -609 -22 -73 -9 -95 105 -180 31 -23 59 -44 62 -47 3 -3 43 -30 90 -61 273 -180 559 -303 880 -378 110 -26 229 -36 420 -36 244 0 330 11 525 65 125 35 212 65 253 86 15 8 30 14 35 14 12 0 196 85 507 233 150 71 304 137 322 137 8 0 18 4 24 8 18 16 140 52 259 77 109 24 141 26 338 25 248 0 231 -8 198 96 -10 32 -38 120 -61 194 -23 74 -55 173 -70 220 -15 47 -36 111 -45 143 -37 120 -76 131 -355 101z"/>
 <path d="M4865 1553 c-210 -17 -387 -53 -510 -103 -11 -4 -47 -18 -80 -31 -76 -28 -125 -50 -250 -109 -55 -26 -140 -66 -190 -89 -132 -62 -179 -85 -185 -91 -5 -5 -167 -68 -290 -112 -30 -11 -64 -23 -75 -28 -25 -10 -204 -56 -270 -69 -27 -6 -70 -15 -95 -20 -25 -6 -123 -15 -218 -22 -176 -12 -411 -2 -522 22 -25 5 -65 14 -90 19 -224 46 -432 107 -547 161 -34 16 -64 29 -67 29 -2 0 -40 16 -83 36 -43 20 -87 40 -98 45 -11 5 -47 25 -80 44 -33 19 -68 38 -77 41 -10 4 -18 10 -18 14 0 4 -8 10 -17 14 -10 3 -30 14 -45 23 -14 10 -48 31 -75 47 -26 16 -50 32 -53 35 -3 3 -12 11 -21 16 -9 6 -28 19 -43 29 -15 10 -43 19 -63 20 l-36 1 -119 -305 c-66 -168 -122 -326 -125 -352 -5 -42 -3 -49 22 -72 15 -14 34 -26 41 -26 7 0 14 -4 16 -9 2 -5 65 -46 141 -90 224 -130 441 -229 627 -287 30 -9 87 -27 125 -39 39 -13 129 -37 200 -55 72 -17 139 -33 150 -36 22 -5 163 -30 260 -45 331 -52 580 -59 835 -24 166 22 326 54 430 84 41 12 93 27 115 32 40 10 233 73 270 89 11 4 41 17 66 29 26 11 60 23 75 27 16 4 34 10 39 15 6 4 49 24 95 44 47 20 166 76 265 125 264 129 379 177 450 184 11 1 47 8 80 15 57 13 348 10 511 -5 99 -9 101 3 36 201 -11 33 -26 80 -32 105 -13 46 -45 138 -61 175 -5 11 -13 38 -18 60 -36 150 -63 208 -108 229 -32 15 -163 20 -288 9z"/>
 </g>

</svg>